# xmcd CD database file
#
# Track frame offsets:
#	150
#	59841
#	97685
#	148137
#	189177
#	238018
#
# Disc length: 3280 seconds
#
# Revision: 0
# Processed by: cddbd v1.5.2PL0 Copyright (c) Steve Scherf et al.
# Submitted via: CDex 1.70beta2
#
DISCID=4e0cce06
DTITLE=石田幹雄トリオ - 張碓
DYEAR=2007
DGENRE=Jazz
TTITLE0=低音限界
TTITLE1=高速限界
TTITLE2=ハリウスII
TTITLE3=ハリウスI
TTITLE4=雪風
TTITLE5=郵便屋さん
EXTD=YEAR: 2007
EXTT0=
EXTT1=
EXTT2=
EXTT3=
EXTT4=
EXTT5=
PLAYORDER=
